<?xml version="1.0" standalone="no"?>
<!DOCTYPE svg PUBLIC "-//W3C//DTD SVG 20010904//EN"
 "http://www.w3.org/TR/2001/REC-SVG-20010904/DTD/svg10.dtd">
<svg version="1.0" xmlns="http://www.w3.org/2000/svg"
 width="55.000000pt" height="55.000000pt" viewBox="0 0 55.000000 55.000000"
 preserveAspectRatio="xMidYMid meet">

<g transform="translate(0.000000,55.000000) scale(0.100000,-0.100000)"
fill="#000000" stroke="none">
<path d="M223 407 c-23 -17 -42 -35 -43 -40 0 -11 54 18 69 37 8 9 19 16 26
16 7 0 18 -7 26 -16 15 -19 69 -48 69 -37 -1 10 -84 73 -96 73 -5 0 -28 -15
-51 -33z"/>
<path d="M118 302 c-87 -36 -107 -52 -68 -52 50 0 176 68 158 86 -2 1 -42 -14
-90 -34z"/>
<path d="M340 333 c1 -19 19 -32 77 -57 62 -26 103 -33 103 -18 0 4 -24 17
-53 29 -28 12 -69 29 -89 37 -21 9 -38 13 -38 9z"/>
<path d="M184 129 c-3 -5 -37 -9 -75 -9 -44 0 -68 -4 -64 -10 8 -14 452 -14
460 0 4 6 -20 10 -64 10 -38 0 -72 4 -75 9 -3 4 -44 8 -91 8 -47 0 -88 -4 -91
-8z"/>
</g>
</svg>
