<?xml version="1.0" standalone="no"?>
<!DOCTYPE svg PUBLIC "-//W3C//DTD SVG 20010904//EN"
 "http://www.w3.org/TR/2001/REC-SVG-20010904/DTD/svg10.dtd">
<svg version="1.0" xmlns="http://www.w3.org/2000/svg"
 width="64.000000pt" height="64.000000pt" viewBox="0 0 64.000000 64.000000"
 preserveAspectRatio="xMidYMid meet">

<g transform="translate(0.000000,64.000000) scale(0.100000,-0.100000)"
fill="#000000" stroke="none">
<path d="M273 601 c-13 -11 -23 -30 -23 -45 0 -26 1 -26 73 -26 64 0 76 -3 95
-23 29 -30 28 -62 -3 -92 -28 -28 -53 -31 -81 -10 -25 19 -83 19 -108 0 -27
-20 -49 -19 -80 6 -49 39 -18 119 47 119 15 0 27 5 27 10 0 6 -14 10 -30 10
-22 0 -43 -12 -80 -47 -41 -39 -50 -53 -50 -81 0 -19 -9 -45 -20 -59 -21 -27
-29 -113 -10 -113 6 0 10 20 10 44 0 25 4 48 10 51 20 12 11 -85 -10 -112 -17
-22 -20 -41 -20 -119 0 -56 4 -94 10 -94 6 0 10 16 10 35 0 24 5 35 15 35 19
0 19 16 0 24 -10 4 -15 19 -15 49 0 38 5 48 45 87 35 34 48 41 57 32 9 -9 5
-19 -20 -45 -32 -33 -41 -57 -22 -57 5 0 12 -11 16 -25 7 -30 24 -33 24 -5 0
19 7 20 155 20 143 0 155 -1 155 -18 0 -10 7 -27 15 -38 8 -10 15 -36 15 -56
0 -21 5 -38 10 -38 16 0 12 86 -5 100 -8 7 -15 21 -15 31 0 11 7 19 15 19 8 0
15 -9 15 -20 0 -25 16 -26 24 -3 3 10 11 26 18 35 11 15 8 23 -22 53 -26 27
-31 38 -22 47 9 9 22 2 57 -32 40 -39 45 -49 45 -87 0 -30 -5 -45 -15 -49 -8
-4 -15 -10 -15 -15 0 -5 7 -9 15 -9 10 0 15 -11 15 -35 0 -19 5 -35 10 -35 6
0 10 38 10 94 0 78 -3 97 -20 119 -14 18 -20 40 -20 79 0 38 3 49 10 38 5 -8
10 -34 10 -57 0 -24 5 -43 10 -43 19 0 11 86 -10 113 -11 14 -20 40 -20 60 0
45 -25 67 -79 67 -34 0 -47 5 -62 25 -11 13 -35 27 -54 31 -27 5 -35 11 -35
28 0 46 -39 59 -77 27z m55 -29 c5 -31 -15 -27 -21 3 -3 16 0 24 7 22 6 -2 12
-13 14 -25z m-38 -12 c0 -5 -4 -10 -10 -10 -5 0 -10 5 -10 10 0 6 5 10 10 10
6 0 10 -4 10 -10z m258 -102 c15 -15 17 -172 2 -163 -5 3 -10 21 -10 38 0 21
-7 36 -20 45 -13 8 -20 23 -20 42 0 17 -4 30 -10 30 -16 0 -12 -67 6 -84 13
-14 13 -16 1 -16 -24 0 -67 -58 -67 -91 l0 -29 -70 0 c-116 0 -80 -19 43 -23
61 -1 24 -3 -83 -3 -107 0 -169 1 -137 3 31 2 57 8 57 13 0 6 -7 10 -15 10 -8
0 -15 9 -15 20 0 13 7 20 20 20 13 0 20 -7 20 -20 0 -29 21 -24 66 15 l39 35
-40 35 c-46 39 -65 44 -65 15 0 -13 -7 -20 -20 -20 -11 0 -20 -4 -20 -10 0 -5
5 -10 10 -10 6 0 10 -4 10 -10 0 -19 -21 -10 -47 20 -13 17 -33 30 -44 30 -14
0 -19 7 -19 26 0 24 1 24 22 10 28 -20 68 -20 94 -1 24 18 64 18 88 0 32 -24
74 -18 107 14 16 16 29 39 29 50 0 18 6 21 38 21 21 0 43 -5 50 -12z m-451
-120 c-2 -24 -4 -5 -4 42 0 47 2 66 4 43 2 -24 2 -62 0 -85z m74 -29 c25 -25
23 -72 -4 -77 -16 -3 -17 -1 -6 16 15 24 5 52 -21 59 -11 3 -20 9 -20 14 0 16
30 9 51 -12z m349 11 c0 -5 -6 -10 -14 -10 -26 0 -40 -28 -27 -56 10 -22 9
-25 -6 -22 -27 5 -29 52 -4 77 22 22 51 28 51 11z m-250 -20 c0 -5 -4 -10 -10
-10 -5 0 -10 5 -10 10 0 6 5 10 10 10 6 0 10 -4 10 -10z m50 0 c0 -5 -7 -10
-15 -10 -8 0 -15 5 -15 10 0 6 7 10 15 10 8 0 15 -4 15 -10z"/>
<path d="M520 440 c0 -5 5 -10 10 -10 6 0 10 5 10 10 0 6 -4 10 -10 10 -5 0
-10 -4 -10 -10z"/>
<path d="M520 400 c0 -5 5 -10 10 -10 6 0 10 5 10 10 0 6 -4 10 -10 10 -5 0
-10 -4 -10 -10z"/>
<path d="M350 340 c0 -5 5 -10 10 -10 6 0 10 5 10 10 0 6 -4 10 -10 10 -5 0
-10 -4 -10 -10z"/>
<path d="M390 340 c0 -5 5 -10 10 -10 6 0 10 5 10 10 0 6 -4 10 -10 10 -5 0
-10 -4 -10 -10z"/>
<path d="M370 300 c0 -5 9 -10 20 -10 11 0 20 5 20 10 0 6 -9 10 -20 10 -11 0
-20 -4 -20 -10z"/>
<path d="M350 260 c0 -5 5 -10 10 -10 6 0 10 5 10 10 0 6 -4 10 -10 10 -5 0
-10 -4 -10 -10z"/>
<path d="M390 260 c0 -5 5 -10 10 -10 6 0 10 5 10 10 0 6 -4 10 -10 10 -5 0
-10 -4 -10 -10z"/>
<path d="M170 485 c0 -8 -7 -15 -15 -15 -8 0 -15 -4 -15 -10 0 -5 7 -10 15
-10 8 0 15 -7 15 -15 0 -8 5 -15 10 -15 6 0 10 7 10 15 0 8 7 15 15 15 8 0 15
5 15 10 0 6 -7 10 -15 10 -8 0 -15 7 -15 15 0 8 -4 15 -10 15 -5 0 -10 -7 -10
-15z"/>
<path d="M360 490 c0 -5 5 -10 10 -10 6 0 10 5 10 10 0 6 -4 10 -10 10 -5 0
-10 -4 -10 -10z"/>
<path d="M390 470 c0 -5 5 -10 10 -10 6 0 10 5 10 10 0 6 -4 10 -10 10 -5 0
-10 -4 -10 -10z"/>
<path d="M250 460 c0 -5 5 -10 10 -10 6 0 10 5 10 10 0 6 -4 10 -10 10 -5 0
-10 -4 -10 -10z"/>
<path d="M290 460 c0 -5 5 -10 10 -10 6 0 10 5 10 10 0 6 -4 10 -10 10 -5 0
-10 -4 -10 -10z"/>
<path d="M340 460 c0 -5 5 -10 10 -10 6 0 10 5 10 10 0 6 -4 10 -10 10 -5 0
-10 -4 -10 -10z"/>
<path d="M370 440 c0 -5 5 -10 10 -10 6 0 10 5 10 10 0 6 -4 10 -10 10 -5 0
-10 -4 -10 -10z"/>
<path d="M158 125 c-19 -25 -25 -105 -8 -105 6 0 10 17 10 38 0 20 7 46 15 56
8 11 15 23 15 28 0 15 -15 7 -32 -17z"/>
</g>
</svg>
