<?xml version="1.0" standalone="no"?>
<!DOCTYPE svg PUBLIC "-//W3C//DTD SVG 20010904//EN"
 "http://www.w3.org/TR/2001/REC-SVG-20010904/DTD/svg10.dtd">
<svg version="1.0" xmlns="http://www.w3.org/2000/svg"
 width="55.000000pt" height="55.000000pt" viewBox="0 0 55.000000 55.000000"
 preserveAspectRatio="xMidYMid meet">

<g transform="translate(0.000000,55.000000) scale(0.100000,-0.100000)"
fill="#000000" stroke="none">
<path d="M126 514 c-19 -19 -26 -37 -26 -64 0 -27 7 -45 26 -64 28 -27 44 -30
106 -20 34 6 36 9 43 50 7 47 0 84 -15 84 -5 0 -4 -11 2 -25 8 -19 8 -31 -1
-51 -6 -14 -9 -29 -7 -33 3 -4 0 -8 -7 -9 -7 0 -29 -4 -49 -7 -31 -6 -40 -4
-62 18 -54 54 -13 146 60 134 20 -4 32 -2 29 4 -13 20 -72 9 -99 -17z"/>
<path d="M371 516 c-9 -11 -10 -20 -2 -35 15 -27 14 -36 -3 -22 -11 9 -18 8
-31 -6 -14 -13 -16 -28 -12 -76 4 -46 0 -74 -19 -130 -25 -73 -22 -86 17 -87
9 0 19 -7 23 -15 3 -8 12 -15 21 -15 9 0 15 -9 15 -25 0 -22 -4 -25 -35 -25
-22 0 -38 -6 -41 -15 -4 -8 -15 -15 -25 -15 -16 0 -19 8 -19 50 0 47 -2 50
-35 64 -35 15 -44 29 -25 41 6 3 7 -1 4 -9 -3 -9 -2 -16 4 -16 14 0 22 26 22
74 0 49 -20 81 -55 90 -29 7 -79 -15 -89 -39 -14 -37 -3 -125 16 -125 6 0 7 7
4 16 -3 8 -2 12 4 9 18 -11 11 -23 -25 -44 -32 -18 -35 -25 -35 -65 0 -28 -5
-46 -13 -48 -9 -2 -8 -8 5 -20 17 -17 18 -17 18 7 0 14 5 25 10 25 6 0 10 -12
10 -26 0 -15 4 -23 10 -19 13 8 2 107 -13 116 -5 4 -5 9 2 14 7 4 18 1 26 -5
12 -10 15 -9 15 8 0 32 29 47 58 29 18 -12 14 -35 -8 -42 -11 -3 -20 -10 -20
-15 0 -12 30 -2 52 17 9 8 22 12 28 8 7 -5 8 -10 3 -14 -14 -8 -24 -109 -12
-116 5 -4 9 5 9 19 0 14 4 28 10 31 6 4 10 -7 10 -24 0 -17 5 -31 10 -31 6 0
10 7 10 15 0 13 22 15 133 16 72 1 122 4 109 6 -13 3 -26 11 -29 19 -3 8 -19
14 -39 14 -30 0 -34 3 -34 25 0 16 6 25 15 25 9 0 18 6 21 14 3 8 18 16 34 20
l29 5 -24 70 c-16 49 -23 89 -22 141 1 52 -3 74 -13 80 -11 7 -19 4 -28 -8
-11 -15 -12 -11 -10 28 2 34 -1 45 -13 48 -9 1 -21 -4 -28 -12z m36 -11 c7
-20 -2 -29 -21 -22 -9 4 -13 13 -10 22 8 19 23 19 31 0z m-10 -67 c-3 -7 -5
-2 -5 12 0 14 2 19 5 13 2 -7 2 -19 0 -25z m-197 -128 c27 -27 26 -42 -2 -30
-13 5 -41 12 -63 15 -37 6 -38 8 -20 21 27 20 62 17 85 -6z m161 -55 c5 4 9
17 9 31 0 19 5 24 25 24 18 0 25 -5 25 -19 0 -10 3 -46 6 -80 l7 -61 -41 0
-41 0 6 35 c4 23 2 35 -6 35 -6 0 -11 -11 -11 -25 0 -15 -6 -25 -14 -25 -25 0
-28 19 -10 73 23 71 28 78 32 39 2 -18 8 -30 13 -27z m108 -6 c21 -63 20 -79
-4 -79 -9 0 -16 15 -20 38 -3 20 -8 52 -11 70 -8 53 13 36 35 -29z m-283 21
c17 0 18 -42 2 -58 -15 -15 -51 -15 -66 0 -7 7 -12 25 -12 41 0 28 2 29 31 23
17 -3 38 -6 45 -6z m211 -177 c-3 -10 -5 -4 -5 12 0 17 2 24 5 18 2 -7 2 -21
0 -30z m73 -33 c0 -6 -34 -10 -81 -10 -51 0 -78 4 -74 10 3 6 40 10 81 10 43
0 74 -4 74 -10z"/>
<path d="M151 248 c-1 -10 -6 -18 -13 -18 -9 0 -9 -3 -1 -11 7 -7 20 -9 30 -5
11 5 13 10 7 14 -6 4 -14 14 -17 22 -4 12 -6 11 -6 -2z"/>
<path d="M301 506 c-9 -10 -8 -16 3 -25 10 -9 16 -8 25 3 9 10 8 16 -3 25 -10
9 -16 8 -25 -3z"/>
<path d="M158 473 c-24 -27 -6 -63 31 -63 23 0 30 5 35 26 5 19 2 30 -11 40
-24 18 -37 17 -55 -3z m46 -5 c17 -17 8 -48 -14 -48 -23 0 -34 28 -19 46 14
17 16 17 33 2z"/>
<path d="M484 336 c-8 -9 -8 -17 1 -29 11 -16 14 -16 25 -2 11 13 11 18 -1 30
-11 11 -16 11 -25 1z"/>
</g>
</svg>
